<svg xmlns="http://www.w3.org/2000/svg" width="1800" height="1200" viewBox="0 0 1800 1200">
  <defs>
    <style>
      .title { font: 700 42px 'Segoe UI', Arial, sans-serif; fill: #0f172a; }
      .subtitle { font: 500 23px 'Segoe UI', Arial, sans-serif; fill: #334155; }
      .axisLabel { font: 700 22px 'Segoe UI', Arial, sans-serif; fill: #0f172a; }
      .feat { font: 600 18px 'Segoe UI', Arial, sans-serif; fill: #1f2937; }
      .tick { font: 500 15px 'Segoe UI', Arial, sans-serif; fill: #475569; }
      .value { font: 700 15px 'Segoe UI', Arial, sans-serif; fill: #0f172a; }
      .frame { fill: #ffffff; stroke: #1e293b; stroke-width: 2; rx: 14; }
      .plot { fill: #f8fafc; stroke: #334155; stroke-width: 2; }
      .grid { stroke: #d1d5db; stroke-width: 1.2; }
      .bar1 { fill: #166534; }
      .bar2 { fill: #15803d; }
      .bar3 { fill: #16a34a; }
      .bar4 { fill: #4ade80; }
      .caption { font: 700 24px 'Segoe UI', Arial, sans-serif; fill: #0f172a; }
      .note { font: 500 15px 'Segoe UI', Arial, sans-serif; fill: #475569; }
    </style>
  </defs>

  <rect x="0" y="0" width="1800" height="1200" fill="#ffffff"/>
  <text x="900" y="68" text-anchor="middle" class="title">SHAP Global Feature Importance</text>
  <text x="900" y="102" text-anchor="middle" class="subtitle">Chronic Kidney Disease (XGBoost)</text>

  <rect class="frame" x="70" y="140" width="1660" height="980"/>
  <rect class="plot" x="300" y="220" width="1200" height="780"/>

  <line class="grid" x1="300" y1="220" x2="300" y2="1000"/>
  <line class="grid" x1="500" y1="220" x2="500" y2="1000"/>
  <line class="grid" x1="700" y1="220" x2="700" y2="1000"/>
  <line class="grid" x1="900" y1="220" x2="900" y2="1000"/>
  <line class="grid" x1="1100" y1="220" x2="1100" y2="1000"/>
  <line class="grid" x1="1300" y1="220" x2="1300" y2="1000"/>
  <line class="grid" x1="1500" y1="220" x2="1500" y2="1000"/>

  <text class="feat" x="280" y="285" text-anchor="end">serum_creatinine</text>
  <rect class="bar1" x="300" y="260" width="1067" height="36"/><text class="value" x="1377" y="284">0.160</text>

  <text class="feat" x="280" y="355" text-anchor="end">blood_urea</text>
  <rect class="bar1" x="300" y="330" width="953" height="36"/><text class="value" x="1263" y="354">0.143</text>

  <text class="feat" x="280" y="425" text-anchor="end">hemoglobin</text>
  <rect class="bar2" x="300" y="400" width="800" height="36"/><text class="value" x="1110" y="424">0.120</text>

  <text class="feat" x="280" y="495" text-anchor="end">specific_gravity</text>
  <rect class="bar2" x="300" y="470" width="693" height="36"/><text class="value" x="1003" y="494">0.104</text>

  <text class="feat" x="280" y="565" text-anchor="end">albumin</text>
  <rect class="bar2" x="300" y="540" width="587" height="36"/><text class="value" x="897" y="564">0.088</text>

  <text class="feat" x="280" y="635" text-anchor="end">packed_cell_volume</text>
  <rect class="bar3" x="300" y="610" width="467" height="36"/><text class="value" x="777" y="634">0.070</text>

  <text class="feat" x="280" y="705" text-anchor="end">hypertension</text>
  <rect class="bar3" x="300" y="680" width="400" height="36"/><text class="value" x="710" y="704">0.060</text>

  <text class="feat" x="280" y="775" text-anchor="end">diabetes_mellitus</text>
  <rect class="bar3" x="300" y="750" width="333" height="36"/><text class="value" x="643" y="774">0.050</text>

  <text class="feat" x="280" y="845" text-anchor="end">age</text>
  <rect class="bar4" x="300" y="820" width="280" height="36"/><text class="value" x="590" y="844">0.042</text>

  <text class="feat" x="280" y="915" text-anchor="end">blood_pressure</text>
  <rect class="bar4" x="300" y="890" width="233" height="36"/><text class="value" x="543" y="914">0.035</text>

  <text class="tick" x="300" y="1030" text-anchor="middle">0.00</text>
  <text class="tick" x="500" y="1030" text-anchor="middle">0.03</text>
  <text class="tick" x="700" y="1030" text-anchor="middle">0.06</text>
  <text class="tick" x="900" y="1030" text-anchor="middle">0.09</text>
  <text class="tick" x="1100" y="1030" text-anchor="middle">0.12</text>
  <text class="tick" x="1300" y="1030" text-anchor="middle">0.15</text>
  <text class="tick" x="1500" y="1030" text-anchor="middle">0.18</text>

  <text class="axisLabel" x="900" y="1080" text-anchor="middle">Mean |SHAP Value| (Impact on Model Output)</text>

  <text class="caption" x="90" y="1150">Fig 14. SHAP Feature Importance - Chronic Kidney Disease</text>
  <text class="note" x="1710" y="1150" text-anchor="end">Global ranking reflects contribution magnitude across CKD predictions.</text>
</svg>
