<svg xmlns="http://www.w3.org/2000/svg" width="1900" height="1250" viewBox="0 0 1900 1250">
  <defs>
    <style>
      .title { font: 700 42px 'Segoe UI', Arial, sans-serif; fill: #0f172a; }
      .subtitle { font: 500 23px 'Segoe UI', Arial, sans-serif; fill: #334155; }
      .frame { fill: #ffffff; stroke: #1e293b; stroke-width: 2; rx: 14; }
      .plot { fill: #f8fafc; stroke: #334155; stroke-width: 2; }
      .grid { stroke: #d1d5db; stroke-width: 1.1; }
      .feat { font: 600 18px 'Segoe UI', Arial, sans-serif; fill: #1f2937; }
      .tick { font: 500 15px 'Segoe UI', Arial, sans-serif; fill: #475569; }
      .axisLabel { font: 700 21px 'Segoe UI', Arial, sans-serif; fill: #0f172a; }
      .caption { font: 700 24px 'Segoe UI', Arial, sans-serif; fill: #0f172a; }
      .note { font: 500 15px 'Segoe UI', Arial, sans-serif; fill: #475569; }
      .low { fill: #2563eb; }
      .mid { fill: #a855f7; }
      .high { fill: #ef4444; }
      .zero { stroke: #0f172a; stroke-width: 2; stroke-dasharray: 7 5; }
    </style>
  </defs>

  <rect x="0" y="0" width="1900" height="1250" fill="#ffffff"/>
  <text x="950" y="68" text-anchor="middle" class="title">SHAP Beeswarm Summary Plot</text>
  <text x="950" y="102" text-anchor="middle" class="subtitle">Heart Disease</text>

  <rect class="frame" x="70" y="140" width="1760" height="1030"/>
  <rect class="plot" x="330" y="220" width="1300" height="820"/>

  <line class="grid" x1="330" y1="220" x2="330" y2="1040"/>
  <line class="grid" x1="492" y1="220" x2="492" y2="1040"/>
  <line class="grid" x1="655" y1="220" x2="655" y2="1040"/>
  <line class="grid" x1="817" y1="220" x2="817" y2="1040"/>
  <line class="grid" x1="980" y1="220" x2="980" y2="1040"/>
  <line class="grid" x1="1142" y1="220" x2="1142" y2="1040"/>
  <line class="grid" x1="1305" y1="220" x2="1305" y2="1040"/>
  <line class="grid" x1="1467" y1="220" x2="1467" y2="1040"/>
  <line class="grid" x1="1630" y1="220" x2="1630" y2="1040"/>

  <line class="zero" x1="980" y1="220" x2="980" y2="1040"/>

  <text class="feat" x="310" y="295" text-anchor="end">ejection_fraction</text>
  <text class="feat" x="310" y="375" text-anchor="end">serum_creatinine</text>
  <text class="feat" x="310" y="455" text-anchor="end">age</text>
  <text class="feat" x="310" y="535" text-anchor="end">serum_sodium</text>
  <text class="feat" x="310" y="615" text-anchor="end">creatinine_phosphokinase</text>
  <text class="feat" x="310" y="695" text-anchor="end">platelets</text>
  <text class="feat" x="310" y="775" text-anchor="end">high_blood_pressure</text>
  <text class="feat" x="310" y="855" text-anchor="end">diabetes</text>
  <text class="feat" x="310" y="935" text-anchor="end">anaemia</text>

  <!-- ejection_fraction -->
  <circle class="low" cx="700" cy="286" r="5"/><circle class="mid" cx="860" cy="297" r="5"/><circle class="high" cx="1170" cy="288" r="5"/><circle class="high" cx="1270" cy="300" r="5"/><circle class="mid" cx="990" cy="282" r="5"/><circle class="low" cx="780" cy="304" r="5"/><circle class="high" cx="1360" cy="292" r="5"/><circle class="mid" cx="940" cy="295" r="5"/><circle class="low" cx="680" cy="293" r="5"/><circle class="high" cx="1230" cy="286" r="5"/>

  <!-- serum_creatinine -->
  <circle class="low" cx="740" cy="367" r="5"/><circle class="mid" cx="890" cy="378" r="5"/><circle class="high" cx="1130" cy="370" r="5"/><circle class="high" cx="1225" cy="382" r="5"/><circle class="mid" cx="980" cy="363" r="5"/><circle class="low" cx="805" cy="385" r="5"/><circle class="high" cx="1310" cy="374" r="5"/><circle class="mid" cx="935" cy="376" r="5"/><circle class="low" cx="720" cy="374" r="5"/><circle class="high" cx="1185" cy="368" r="5"/>

  <!-- age -->
  <circle class="low" cx="800" cy="447" r="5"/><circle class="mid" cx="920" cy="458" r="5"/><circle class="high" cx="1080" cy="450" r="5"/><circle class="high" cx="1165" cy="462" r="5"/><circle class="mid" cx="990" cy="443" r="5"/><circle class="low" cx="860" cy="465" r="5"/><circle class="high" cx="1230" cy="454" r="5"/><circle class="mid" cx="960" cy="456" r="5"/><circle class="low" cx="785" cy="454" r="5"/><circle class="high" cx="1110" cy="448" r="5"/>

  <!-- serum_sodium -->
  <circle class="low" cx="830" cy="527" r="5"/><circle class="mid" cx="940" cy="538" r="5"/><circle class="high" cx="1060" cy="530" r="5"/><circle class="high" cx="1135" cy="542" r="5"/><circle class="mid" cx="1000" cy="523" r="5"/><circle class="low" cx="885" cy="545" r="5"/><circle class="high" cx="1195" cy="534" r="5"/><circle class="mid" cx="970" cy="536" r="5"/><circle class="low" cx="820" cy="534" r="5"/><circle class="high" cx="1095" cy="528" r="5"/>

  <!-- cpk -->
  <circle class="low" cx="860" cy="607" r="5"/><circle class="mid" cx="960" cy="618" r="5"/><circle class="high" cx="1040" cy="610" r="5"/><circle class="high" cx="1110" cy="622" r="5"/><circle class="mid" cx="1000" cy="603" r="5"/><circle class="low" cx="915" cy="625" r="5"/><circle class="high" cx="1155" cy="614" r="5"/><circle class="mid" cx="980" cy="616" r="5"/><circle class="low" cx="850" cy="614" r="5"/><circle class="high" cx="1070" cy="608" r="5"/>

  <!-- platelets -->
  <circle class="low" cx="900" cy="687" r="5"/><circle class="mid" cx="975" cy="698" r="5"/><circle class="high" cx="1030" cy="690" r="5"/><circle class="high" cx="1085" cy="702" r="5"/><circle class="mid" cx="998" cy="683" r="5"/><circle class="low" cx="938" cy="705" r="5"/><circle class="high" cx="1130" cy="694" r="5"/><circle class="mid" cx="990" cy="696" r="5"/><circle class="low" cx="890" cy="694" r="5"/><circle class="high" cx="1060" cy="688" r="5"/>

  <!-- hbp -->
  <circle class="low" cx="915" cy="767" r="5"/><circle class="mid" cx="985" cy="778" r="5"/><circle class="high" cx="1025" cy="770" r="5"/><circle class="high" cx="1070" cy="782" r="5"/><circle class="mid" cx="1000" cy="763" r="5"/><circle class="low" cx="950" cy="785" r="5"/><circle class="high" cx="1110" cy="774" r="5"/><circle class="mid" cx="995" cy="776" r="5"/><circle class="low" cx="905" cy="774" r="5"/><circle class="high" cx="1045" cy="768" r="5"/>

  <!-- diabetes -->
  <circle class="low" cx="925" cy="847" r="5"/><circle class="mid" cx="995" cy="858" r="5"/><circle class="high" cx="1015" cy="850" r="5"/><circle class="high" cx="1060" cy="862" r="5"/><circle class="mid" cx="1000" cy="843" r="5"/><circle class="low" cx="958" cy="865" r="5"/><circle class="high" cx="1090" cy="854" r="5"/><circle class="mid" cx="998" cy="856" r="5"/><circle class="low" cx="918" cy="854" r="5"/><circle class="high" cx="1030" cy="848" r="5"/>

  <!-- anaemia -->
  <circle class="low" cx="935" cy="927" r="5"/><circle class="mid" cx="1000" cy="938" r="5"/><circle class="high" cx="1012" cy="930" r="5"/><circle class="high" cx="1050" cy="942" r="5"/><circle class="mid" cx="1002" cy="923" r="5"/><circle class="low" cx="965" cy="945" r="5"/><circle class="high" cx="1075" cy="934" r="5"/><circle class="mid" cx="1001" cy="936" r="5"/><circle class="low" cx="930" cy="934" r="5"/><circle class="high" cx="1025" cy="928" r="5"/>

  <text class="tick" x="330" y="1070" text-anchor="middle">-0.20</text>
  <text class="tick" x="492" y="1070" text-anchor="middle">-0.15</text>
  <text class="tick" x="655" y="1070" text-anchor="middle">-0.10</text>
  <text class="tick" x="817" y="1070" text-anchor="middle">-0.05</text>
  <text class="tick" x="980" y="1070" text-anchor="middle">0.00</text>
  <text class="tick" x="1142" y="1070" text-anchor="middle">0.05</text>
  <text class="tick" x="1305" y="1070" text-anchor="middle">0.10</text>
  <text class="tick" x="1467" y="1070" text-anchor="middle">0.15</text>
  <text class="tick" x="1630" y="1070" text-anchor="middle">0.20</text>

  <text class="axisLabel" x="980" y="1115" text-anchor="middle">SHAP Value (Impact on Prediction)</text>

  <circle class="low" cx="1420" cy="175" r="7"/><text class="tick" x="1440" y="180">Low Feature Value</text>
  <circle class="mid" cx="1590" cy="175" r="7"/><text class="tick" x="1610" y="180">Medium</text>
  <circle class="high" cx="1710" cy="175" r="7"/><text class="tick" x="1730" y="180">High Feature Value</text>

  <text class="caption" x="90" y="1180">Fig 16. SHAP Beeswarm Summary - Heart Disease</text>
  <text class="note" x="1810" y="1180" text-anchor="end">Distribution width reflects heterogeneity of feature effects across heart-risk predictions.</text>
</svg>
